<svg id="svg" version="1.1" width="400" height="275.0524109014675" viewBox="0 0 400 275.0524109014675" xmlns="http://www.w3.org/2000/svg" xmlns:xlink="http://www.w3.org/1999/xlink" ><g id="svgg"><path id="path0" d="M20.012 35.806 C 19.553 36.158,19.533 41.077,19.600 135.901 L 19.670 235.626 38.316 235.626 L 56.962 235.626 56.952 198.487 C 56.944 163.605,56.972 161.289,57.426 160.385 L 57.909 159.422 71.326 159.351 C 83.084 159.288,84.988 159.337,86.731 159.742 C 88.224 160.088,90.649 160.243,96.436 160.363 C 103.236 160.504,104.241 160.581,104.908 161.018 C 105.422 161.355,106.431 161.565,108.059 161.672 C 109.682 161.780,110.730 161.997,111.312 162.346 C 111.783 162.629,112.595 162.861,113.115 162.861 C 113.692 162.861,114.425 163.129,114.993 163.549 C 115.506 163.927,116.099 164.237,116.311 164.237 C 116.523 164.237,117.033 164.476,117.443 164.769 C 117.854 165.061,118.518 165.383,118.919 165.483 C 119.319 165.584,119.781 165.827,119.945 166.025 C 120.108 166.222,120.949 166.732,121.813 167.159 C 123.613 168.049,128.597 172.886,129.199 174.328 C 129.401 174.809,129.680 175.274,129.820 175.360 C 130.155 175.567,132.050 179.021,132.050 179.424 C 132.050 179.596,132.246 179.954,132.487 180.220 C 132.728 180.486,133.044 181.237,133.191 181.888 C 133.337 182.540,133.639 183.275,133.862 183.521 C 134.085 183.767,134.342 184.635,134.433 185.451 C 134.524 186.266,134.754 187.118,134.942 187.345 C 135.392 187.885,135.652 188.769,135.911 190.635 C 136.028 191.474,136.315 192.655,136.550 193.260 C 136.799 193.901,136.982 195.250,136.989 196.492 C 136.996 197.665,137.120 198.624,137.266 198.624 C 137.701 198.624,138.130 200.709,138.381 204.049 C 138.516 205.835,138.769 207.375,138.966 207.613 C 139.195 207.888,139.366 209.426,139.464 212.090 C 139.558 214.618,139.739 216.298,139.943 216.543 C 140.424 217.121,140.848 220.133,140.851 222.981 C 140.852 224.757,141.010 225.913,141.403 227.032 C 141.823 228.227,141.953 229.302,141.953 231.582 C 141.953 234.347,142.000 234.611,142.590 235.165 L 143.227 235.763 163.338 235.763 C 174.399 235.763,183.629 235.694,183.849 235.610 C 184.472 235.371,184.150 230.656,183.442 229.648 C 183.017 229.043,182.874 228.175,182.709 225.203 C 182.577 222.821,182.375 221.355,182.141 221.073 C 181.882 220.761,181.740 219.228,181.646 215.751 C 181.543 211.934,181.395 210.476,180.966 209.078 C 180.555 207.739,180.369 206.071,180.225 202.435 C 180.091 199.066,179.921 197.447,179.669 197.143 C 179.437 196.864,179.227 195.382,179.088 193.057 C 178.923 190.285,178.734 189.111,178.300 188.171 C 177.926 187.360,177.727 186.361,177.723 185.278 C 177.719 184.158,177.539 183.291,177.166 182.597 C 176.864 182.032,176.616 181.055,176.616 180.426 C 176.616 179.651,176.408 179.007,175.971 178.430 C 175.616 177.962,175.254 177.032,175.166 176.363 C 175.076 175.681,174.816 175.041,174.573 174.905 C 174.335 174.772,174.140 174.341,174.140 173.946 C 174.140 173.552,173.831 172.824,173.453 172.328 C 173.074 171.832,172.765 171.175,172.765 170.868 C 172.765 170.561,172.541 170.089,172.267 169.818 C 171.994 169.547,171.353 168.645,170.845 167.813 C 170.336 166.981,169.783 166.176,169.616 166.025 C 169.450 165.873,169.029 165.378,168.681 164.924 C 167.716 163.665,164.464 160.349,163.285 159.422 C 162.707 158.968,162.094 158.462,161.923 158.296 C 161.274 157.670,158.238 155.829,156.544 155.034 C 156.020 154.788,155.401 154.423,155.168 154.222 C 154.936 154.021,154.380 153.769,153.933 153.663 C 153.485 153.556,152.952 153.230,152.748 152.938 C 152.543 152.646,152.078 152.407,151.713 152.407 C 150.820 152.407,149.106 150.871,149.106 150.070 C 149.106 149.399,149.569 149.106,150.632 149.106 C 151.006 149.106,151.414 148.870,151.582 148.556 C 151.744 148.253,152.102 148.006,152.378 148.006 C 152.655 148.006,153.337 147.696,153.894 147.318 C 154.451 146.939,155.079 146.630,155.288 146.630 C 155.498 146.630,155.833 146.475,156.033 146.286 C 156.451 145.889,158.717 144.359,159.189 144.154 C 160.597 143.542,169.599 134.620,171.402 132.050 C 171.773 131.520,172.151 131.025,172.242 130.949 C 172.333 130.873,172.569 130.502,172.767 130.124 C 172.965 129.746,173.355 129.274,173.634 129.077 C 173.912 128.879,174.140 128.465,174.140 128.157 C 174.140 127.849,174.388 127.282,174.691 126.898 C 174.993 126.513,175.241 125.954,175.241 125.656 C 175.241 125.358,175.550 124.746,175.928 124.296 C 176.338 123.810,176.616 123.134,176.616 122.628 C 176.616 122.160,176.807 121.565,177.041 121.308 C 177.274 121.050,177.539 120.359,177.630 119.773 C 177.721 119.187,178.087 118.123,178.444 117.409 C 178.800 116.696,179.092 115.658,179.092 115.104 C 179.092 114.549,179.325 113.709,179.609 113.237 C 179.959 112.657,180.174 111.625,180.276 110.041 C 180.359 108.755,180.688 106.948,181.008 106.026 C 181.831 103.655,181.772 80.818,180.940 79.294 C 180.650 78.764,180.355 77.380,180.220 75.918 C 180.068 74.273,179.840 73.273,179.542 72.943 C 179.272 72.645,179.092 71.972,179.092 71.256 C 179.092 70.410,178.893 69.805,178.404 69.164 C 178.026 68.668,177.717 68.092,177.717 67.884 C 177.717 67.389,175.861 63.625,175.511 63.408 C 175.362 63.316,175.241 63.020,175.241 62.750 C 175.241 62.480,174.993 62.035,174.691 61.761 C 174.388 61.487,174.140 61.147,174.140 61.006 C 174.140 59.881,167.226 52.094,164.237 49.853 C 163.707 49.456,162.902 48.768,162.448 48.324 C 161.437 47.333,158.254 45.182,157.084 44.697 C 155.386 43.995,154.883 43.714,154.883 43.471 C 154.883 43.317,154.603 43.191,154.260 43.191 C 153.917 43.191,153.191 42.952,152.647 42.660 C 152.102 42.369,151.176 42.040,150.590 41.930 C 150.003 41.820,148.978 41.439,148.311 41.085 C 147.644 40.730,146.710 40.440,146.235 40.440 C 145.759 40.440,144.885 40.193,144.292 39.890 C 143.698 39.587,142.708 39.340,142.091 39.340 C 141.474 39.340,140.494 39.097,139.912 38.801 C 139.243 38.459,137.987 38.196,136.484 38.082 C 135.180 37.983,133.865 37.749,133.563 37.562 C 132.564 36.945,128.693 36.859,89.409 36.585 C 52.764 36.330,29.986 35.992,23.384 35.606 C 21.179 35.477,20.381 35.524,20.012 35.806 M121.982 71.939 C 123.140 72.318,124.529 72.627,125.068 72.627 C 125.631 72.627,126.345 72.861,126.747 73.177 C 127.132 73.480,127.721 73.728,128.055 73.728 C 128.389 73.728,128.881 73.968,129.147 74.262 C 129.413 74.556,129.991 74.876,130.431 74.973 C 131.393 75.184,136.653 80.356,136.898 81.332 C 136.988 81.689,137.170 81.981,137.303 81.981 C 137.870 81.981,139.477 85.888,139.477 87.267 C 139.477 88.023,139.674 89.401,139.915 90.329 C 140.542 92.752,140.550 100.360,139.927 102.029 C 139.651 102.768,139.477 104.069,139.477 105.400 C 139.477 107.042,139.344 107.816,138.927 108.594 C 138.624 109.159,138.377 109.884,138.377 110.205 C 138.377 110.527,138.087 111.218,137.732 111.741 C 137.377 112.264,136.999 113.039,136.893 113.463 C 136.618 114.559,130.027 121.045,129.189 121.045 C 128.842 121.045,128.346 121.280,128.086 121.567 C 127.826 121.854,127.082 122.223,126.431 122.387 C 125.781 122.551,125.093 122.873,124.902 123.103 C 124.677 123.373,124.077 123.521,123.204 123.521 C 122.461 123.521,121.393 123.715,120.830 123.952 C 118.168 125.072,59.084 125.464,57.733 124.371 L 57.084 123.845 57.011 98.194 C 56.946 75.491,56.987 72.469,57.361 71.898 L 57.784 71.252 88.830 71.252 L 119.875 71.252 121.982 71.939 " stroke="none" fill="#2b336c" fill-rule="evenodd"></path><path id="path1" d="M200.857 39.858 L 200.274 40.441 200.344 140.922 L 200.413 241.403 215.681 241.337 C 224.078 241.301,236.706 241.146,243.741 240.994 C 250.777 240.842,266.499 240.712,278.680 240.705 C 303.840 240.690,333.514 240.265,336.176 239.880 C 337.160 239.738,339.202 239.484,340.715 239.315 C 342.479 239.119,343.774 238.822,344.324 238.487 C 344.796 238.199,345.539 237.963,345.975 237.962 C 346.411 237.960,347.387 237.655,348.143 237.283 C 348.900 236.910,349.780 236.602,350.100 236.597 C 350.420 236.593,350.987 236.349,351.360 236.056 C 351.733 235.762,352.364 235.441,352.761 235.341 C 353.159 235.241,353.624 234.992,353.793 234.788 C 353.963 234.583,354.545 234.270,355.086 234.091 C 355.627 233.913,356.824 233.266,357.746 232.654 C 358.668 232.042,359.917 231.226,360.523 230.840 C 364.473 228.324,371.664 220.990,371.664 219.478 C 371.664 219.344,371.893 218.900,372.172 218.490 C 373.724 216.208,374.140 215.458,374.140 214.943 C 374.140 214.629,374.325 214.219,374.552 214.031 C 374.778 213.844,375.109 213.178,375.287 212.553 C 375.465 211.928,375.779 211.217,375.984 210.973 C 376.190 210.729,376.469 209.863,376.604 209.048 C 376.740 208.232,377.037 207.194,377.264 206.740 C 377.491 206.286,377.820 205.110,377.995 204.127 C 378.170 203.143,378.488 201.662,378.703 200.836 C 379.297 198.545,379.253 179.982,378.647 177.304 C 378.407 176.245,378.113 174.752,377.995 173.987 C 377.876 173.221,377.517 172.021,377.197 171.320 C 376.878 170.618,376.616 169.816,376.616 169.537 C 376.616 169.258,376.376 168.558,376.082 167.982 C 375.788 167.405,375.465 166.544,375.364 166.067 C 375.262 165.590,375.032 165.014,374.851 164.787 C 374.671 164.560,374.115 163.569,373.616 162.586 C 372.771 160.918,369.982 156.505,369.337 155.814 C 369.180 155.645,368.311 154.655,367.407 153.613 C 364.535 150.305,361.533 147.626,358.041 145.254 C 357.484 144.876,356.822 144.381,356.571 144.154 C 356.319 143.927,355.771 143.587,355.351 143.399 C 354.339 142.945,352.266 141.385,351.891 140.796 C 351.592 140.326,351.808 140.142,354.913 138.236 C 357.491 136.654,361.728 133.101,364.031 130.591 C 366.869 127.498,369.881 123.730,370.563 122.421 C 370.760 122.043,370.996 121.671,371.087 121.596 C 371.177 121.520,371.474 121.025,371.745 120.495 C 372.016 119.966,372.656 118.790,373.167 117.882 C 373.677 116.974,374.106 115.968,374.118 115.646 C 374.130 115.324,374.326 114.907,374.552 114.719 C 374.779 114.531,375.137 113.804,375.349 113.103 C 375.562 112.403,375.933 111.458,376.174 111.004 C 376.415 110.550,376.614 109.842,376.615 109.431 C 376.615 109.019,376.856 108.215,377.149 107.643 C 377.443 107.071,377.809 105.674,377.963 104.539 C 378.116 103.404,378.434 101.934,378.667 101.272 C 379.345 99.352,379.275 86.215,378.571 83.219 C 378.287 82.008,377.967 80.399,377.860 79.642 C 377.752 78.886,377.429 77.748,377.141 77.113 C 376.852 76.478,376.616 75.610,376.616 75.183 C 376.616 74.756,376.385 73.976,376.103 73.448 C 375.820 72.921,375.495 72.056,375.379 71.527 C 375.264 70.997,374.938 70.269,374.655 69.908 C 374.372 69.547,374.140 69.017,374.140 68.729 C 374.140 67.628,369.668 60.381,367.554 58.058 C 366.940 57.383,366.437 56.752,366.437 56.656 C 366.437 56.328,360.897 50.877,359.882 50.206 C 359.327 49.839,358.342 49.163,357.693 48.703 C 357.045 48.244,356.412 47.868,356.287 47.868 C 356.162 47.868,355.592 47.497,355.021 47.043 C 354.449 46.589,353.829 46.217,353.641 46.217 C 353.453 46.217,353.152 46.040,352.972 45.822 C 352.792 45.605,352.306 45.353,351.892 45.262 C 351.479 45.171,350.538 44.792,349.801 44.419 C 349.065 44.046,348.324 43.741,348.155 43.741 C 347.985 43.741,347.361 43.494,346.768 43.191 C 346.174 42.889,345.213 42.641,344.631 42.641 C 344.049 42.641,343.054 42.409,342.420 42.126 C 341.785 41.843,340.438 41.531,339.427 41.433 C 338.415 41.334,337.054 41.050,336.401 40.800 C 335.342 40.396,332.913 40.337,314.030 40.259 C 273.185 40.091,208.357 39.605,204.916 39.441 C 201.626 39.284,201.409 39.306,200.857 39.858 M301.651 76.085 C 306.039 76.170,310.186 76.350,310.867 76.487 C 311.547 76.623,312.965 76.818,314.016 76.920 C 315.067 77.021,316.429 77.332,317.042 77.611 C 317.655 77.889,318.440 78.120,318.785 78.123 C 319.131 78.127,320.396 78.686,321.596 79.367 C 322.796 80.048,323.874 80.606,323.993 80.607 C 324.501 80.612,329.849 86.501,329.849 87.055 C 329.849 87.250,330.079 87.704,330.360 88.065 C 331.558 89.602,332.644 99.612,331.787 101.214 C 331.643 101.483,331.411 102.623,331.272 103.746 C 331.132 104.869,330.755 106.279,330.433 106.879 C 330.112 107.479,329.849 108.107,329.849 108.275 C 329.849 108.443,329.612 108.794,329.323 109.056 C 329.034 109.318,328.719 109.847,328.622 110.233 C 328.215 111.853,322.160 118.019,320.976 118.019 C 320.752 118.019,320.274 118.250,319.913 118.532 C 317.874 120.124,315.084 120.908,309.078 121.573 C 305.385 121.982,244.000 122.514,243.626 122.140 C 243.301 121.816,243.027 78.226,243.338 76.503 L 243.508 75.564 268.590 75.748 C 282.386 75.849,297.263 76.001,301.651 76.085 M315.131 159.349 C 315.887 159.667,317.148 160.216,317.933 160.569 C 318.718 160.922,319.537 161.210,319.753 161.210 C 319.969 161.210,320.451 161.450,320.824 161.744 C 321.196 162.037,321.823 162.357,322.216 162.456 C 322.609 162.555,323.145 162.872,323.406 163.161 C 323.668 163.450,324.015 163.686,324.177 163.686 C 324.576 163.686,328.748 167.855,328.748 168.254 C 328.748 168.428,328.928 168.720,329.147 168.902 C 329.366 169.084,329.691 169.687,329.869 170.242 C 330.048 170.797,330.368 171.452,330.581 171.697 C 331.944 173.262,331.813 186.656,330.407 189.398 C 330.100 189.997,329.846 190.740,329.843 191.049 C 329.839 191.357,329.594 191.919,329.298 192.297 C 329.003 192.675,328.758 193.102,328.754 193.245 C 328.721 194.664,323.170 200.377,320.749 201.484 C 320.231 201.721,319.622 202.032,319.395 202.176 C 317.627 203.295,314.677 203.983,310.591 204.230 C 309.911 204.272,307.930 204.449,306.190 204.623 C 300.858 205.160,243.798 205.208,243.461 204.677 C 242.963 203.891,243.115 159.401,243.617 158.898 C 244.388 158.127,313.255 158.561,315.131 159.349 " stroke="none" fill="#7cb345" fill-rule="evenodd"></path><path id="path2" d="M0.000 137.552 L 0.000 275.103 200.000 275.103 L 400.000 275.103 400.000 137.552 L 400.000 0.000 200.000 0.000 L 0.000 0.000 0.000 137.552 M387.314 14.247 C 387.659 14.891,388.033 260.523,387.690 261.009 C 387.396 261.427,371.023 261.438,158.387 261.168 C 37.895 261.015,12.319 260.919,12.070 260.619 C 11.573 260.020,11.847 14.810,12.345 14.210 C 12.955 13.474,386.920 13.511,387.314 14.247 M18.982 35.488 C 18.227 36.244,18.098 234.594,18.852 236.052 L 19.271 236.864 38.364 236.864 C 55.355 236.864,57.505 236.816,57.890 236.432 C 58.278 236.043,58.322 232.260,58.322 198.898 C 58.322 174.596,58.418 161.544,58.600 161.066 L 58.877 160.336 70.635 160.503 C 77.102 160.595,83.755 160.719,85.420 160.779 C 88.000 160.872,88.182 160.853,86.657 160.652 C 85.674 160.521,79.051 160.287,71.939 160.132 L 59.010 159.848 58.528 160.422 C 58.075 160.963,58.047 163.178,58.047 198.364 L 58.047 235.732 57.435 236.160 C 56.717 236.663,20.318 236.816,19.532 236.319 C 18.998 235.982,18.754 36.233,19.287 35.590 C 19.532 35.295,21.636 35.205,29.673 35.144 L 39.752 35.069 29.642 35.003 C 19.854 34.940,19.515 34.956,18.982 35.488 M79.505 35.504 C 96.073 35.591,114.261 35.814,119.922 36.001 C 125.584 36.188,130.721 36.302,131.339 36.254 C 131.957 36.207,129.120 36.076,125.034 35.963 C 120.949 35.850,115.750 35.634,113.480 35.483 C 111.032 35.321,97.153 35.237,79.367 35.278 L 49.381 35.346 79.505 35.504 M134.113 36.902 C 135.021 37.195,136.444 37.478,137.276 37.530 C 138.109 37.582,138.480 37.569,138.102 37.501 C 137.724 37.433,136.465 37.138,135.305 36.845 C 132.632 36.171,131.952 36.204,134.113 36.902 M140.842 38.228 C 141.669 38.537,142.659 38.781,143.043 38.771 C 143.521 38.758,143.307 38.623,142.366 38.341 C 140.161 37.682,139.189 37.610,140.842 38.228 M145.213 39.480 C 146.022 39.857,147.013 40.160,147.414 40.155 C 147.901 40.148,147.511 39.920,146.239 39.467 C 143.797 38.598,143.332 38.604,145.213 39.480 M210.505 39.546 C 213.030 39.591,217.239 39.591,219.859 39.546 C 222.478 39.500,220.413 39.463,215.268 39.463 C 210.124 39.463,207.980 39.500,210.505 39.546 M250.481 39.905 C 278.595 40.142,315.911 40.126,312.242 39.878 C 310.653 39.770,291.279 39.692,269.188 39.703 C 233.685 39.721,231.514 39.745,250.481 39.905 M149.275 40.691 C 149.898 40.974,150.827 41.294,151.339 41.403 C 151.851 41.511,152.656 41.834,153.127 42.120 C 153.599 42.407,154.156 42.636,154.365 42.629 C 154.992 42.609,152.967 41.648,150.682 40.882 C 148.171 40.040,147.700 39.976,149.275 40.691 M336.864 40.990 C 337.166 41.120,337.600 41.227,337.827 41.227 C 338.087 41.227,338.036 41.139,337.689 40.990 C 337.387 40.860,336.953 40.754,336.726 40.754 C 336.466 40.754,336.517 40.841,336.864 40.990 M342.372 42.064 C 342.520 42.209,343.012 42.415,343.466 42.523 C 344.531 42.775,344.292 42.541,343.060 42.124 C 342.534 41.946,342.224 41.919,342.372 42.064 M155.158 42.934 C 155.385 43.090,156.190 43.526,156.946 43.901 C 159.536 45.188,159.978 45.486,163.136 48.079 C 167.130 51.358,168.884 53.013,170.664 55.182 C 172.607 57.551,174.163 59.583,174.525 60.225 C 174.692 60.521,175.254 61.482,175.776 62.362 C 177.044 64.503,178.180 66.820,178.409 67.733 C 178.512 68.143,178.769 68.622,178.982 68.798 C 179.194 68.974,179.367 69.309,179.367 69.543 C 179.367 69.777,179.455 69.880,179.562 69.773 C 179.669 69.666,179.490 69.058,179.166 68.421 C 178.841 67.784,178.173 66.396,177.682 65.337 C 176.691 63.200,175.243 60.710,174.908 60.569 C 174.788 60.518,174.689 60.332,174.688 60.156 C 174.687 59.979,174.068 59.039,173.313 58.066 C 172.557 57.093,171.939 56.220,171.939 56.126 C 171.939 55.724,165.558 49.515,163.594 48.006 C 160.586 45.694,157.822 43.768,157.492 43.754 C 157.339 43.747,156.751 43.494,156.187 43.191 C 155.107 42.612,154.455 42.449,155.158 42.934 M179.648 71.176 C 179.645 71.513,179.889 72.194,180.192 72.689 C 180.897 73.847,180.901 73.312,180.199 71.763 C 179.806 70.899,179.653 70.735,179.648 71.176 M58.658 71.955 L 58.047 72.383 58.047 98.046 L 58.047 123.708 58.747 124.027 C 60.387 124.774,111.630 124.347,118.157 123.532 C 120.485 123.242,117.249 123.355,110.867 123.787 C 105.844 124.128,59.408 124.141,58.872 123.802 C 58.511 123.574,58.450 120.346,58.386 97.959 L 58.314 72.376 58.928 72.047 C 59.898 71.528,115.334 71.928,118.707 72.479 C 121.822 72.987,122.340 72.978,120.770 72.444 C 118.097 71.533,59.914 71.076,58.658 71.955 M122.971 73.086 C 127.300 73.826,133.062 77.352,135.249 80.599 C 135.608 81.132,136.220 82.044,136.609 82.626 C 136.998 83.207,137.375 83.624,137.447 83.552 C 137.694 83.306,135.118 79.782,133.711 78.438 C 132.196 76.993,130.508 75.653,130.201 75.653 C 130.048 75.653,129.600 75.399,129.205 75.089 C 128.811 74.779,127.897 74.328,127.174 74.087 C 126.451 73.847,125.728 73.547,125.566 73.422 C 125.405 73.297,124.601 73.143,123.778 73.082 C 122.956 73.020,122.593 73.022,122.971 73.086 M180.780 74.564 C 180.760 75.100,180.947 76.276,181.197 77.177 C 181.447 78.079,181.739 79.436,181.846 80.193 C 182.031 81.497,182.043 81.513,182.080 80.505 C 182.101 79.921,181.879 78.435,181.587 77.204 C 181.295 75.973,181.002 74.656,180.937 74.278 C 180.846 73.755,180.809 73.824,180.780 74.564 M263.911 75.859 C 266.758 75.904,271.338 75.904,274.090 75.859 C 276.841 75.814,274.512 75.778,268.913 75.778 C 263.315 75.778,261.064 75.815,263.911 75.859 M376.766 76.272 C 376.869 76.613,377.066 77.012,377.205 77.160 C 377.343 77.308,377.317 77.029,377.147 76.541 C 376.799 75.542,376.477 75.315,376.766 76.272 M285.488 76.134 C 287.796 76.180,291.572 76.180,293.879 76.134 C 296.186 76.088,294.298 76.051,289.684 76.051 C 285.069 76.051,283.181 76.088,285.488 76.134 M304.883 76.408 C 305.904 76.461,307.576 76.461,308.597 76.408 C 309.618 76.355,308.783 76.311,306.740 76.311 C 304.697 76.311,303.862 76.355,304.883 76.408 M243.322 99.037 C 243.322 111.066,243.356 115.987,243.397 109.972 C 243.439 103.958,243.439 94.116,243.397 88.102 C 243.356 82.087,243.322 87.008,243.322 99.037 M182.247 92.985 C 182.252 102.943,182.255 102.994,182.600 99.175 C 182.817 96.773,182.885 93.667,182.780 90.922 C 182.450 82.291,182.242 83.095,182.247 92.985 M137.552 84.156 C 137.552 84.338,137.783 85.006,138.066 85.641 C 138.349 86.276,138.649 86.981,138.732 87.208 C 138.833 87.483,138.891 87.419,138.905 87.016 C 138.917 86.683,138.618 85.829,138.239 85.118 C 137.861 84.407,137.552 83.974,137.552 84.156 M139.017 90.371 C 139.019 91.431,139.068 91.830,139.128 91.259 C 139.187 90.689,139.186 89.822,139.126 89.334 C 139.065 88.845,139.016 89.312,139.017 90.371 M379.188 92.435 C 379.188 93.721,379.236 94.247,379.294 93.604 C 379.352 92.961,379.352 91.909,379.294 91.265 C 379.236 90.622,379.188 91.149,379.188 92.435 M139.313 96.561 C 139.313 98.906,139.355 99.866,139.407 98.693 C 139.458 97.521,139.458 95.602,139.407 94.429 C 139.355 93.257,139.313 94.216,139.313 96.561 M331.812 100.046 C 331.791 100.374,331.703 100.870,331.616 101.147 C 331.466 101.624,331.475 101.625,331.772 101.161 C 331.944 100.892,332.033 100.397,331.968 100.061 C 331.849 99.450,331.849 99.450,331.812 100.046 M139.006 102.201 C 139.008 102.957,139.061 103.234,139.125 102.816 C 139.188 102.398,139.186 101.779,139.121 101.441 C 139.055 101.102,139.004 101.444,139.006 102.201 M181.918 105.640 C 181.918 106.320,181.972 106.599,182.037 106.259 C 182.103 105.918,182.103 105.361,182.037 105.021 C 181.972 104.680,181.918 104.959,181.918 105.640 M138.698 105.295 C 138.673 105.634,138.394 106.657,138.080 107.566 C 137.765 108.476,137.569 109.374,137.645 109.562 C 137.728 109.767,137.792 109.714,137.805 109.431 C 137.817 109.171,138.082 108.467,138.395 107.868 C 138.774 107.141,138.926 106.429,138.854 105.728 C 138.794 105.150,138.724 104.955,138.698 105.295 M181.305 108.184 C 181.112 108.827,180.910 110.096,180.857 111.004 L 180.760 112.655 181.161 110.729 C 181.852 107.415,181.919 107.015,181.785 107.015 C 181.714 107.015,181.497 107.541,181.305 108.184 M136.866 111.239 C 136.576 111.779,136.425 112.308,136.532 112.415 C 136.639 112.521,136.726 112.443,136.726 112.241 C 136.726 112.038,136.925 111.654,137.167 111.386 C 137.410 111.118,137.560 110.754,137.501 110.578 C 137.443 110.402,137.157 110.700,136.866 111.239 M135.657 113.503 C 135.337 113.909,135.076 114.336,135.076 114.451 C 135.076 115.244,129.022 120.482,128.082 120.501 C 127.675 120.510,126.333 121.582,126.720 121.589 C 126.891 121.593,127.168 121.430,127.336 121.227 C 127.504 121.025,128.139 120.710,128.747 120.528 C 130.275 120.070,136.912 113.436,136.377 112.902 C 136.301 112.826,135.977 113.096,135.657 113.503 M180.124 113.793 C 179.859 114.314,179.649 115.014,179.657 115.348 C 179.667 115.747,179.860 115.494,180.218 114.611 C 180.869 113.007,180.805 112.452,180.124 113.793 M179.399 116.989 C 179.382 117.254,179.120 117.933,178.817 118.498 C 178.514 119.062,178.267 119.775,178.267 120.083 C 178.267 120.390,178.037 121.072,177.755 121.600 C 177.474 122.127,177.153 122.868,177.042 123.246 C 176.698 124.417,174.143 129.377,173.286 130.536 C 172.839 131.142,172.269 131.946,172.019 132.325 C 171.769 132.703,171.432 133.136,171.269 133.287 C 171.106 133.439,170.619 133.996,170.186 134.525 C 166.999 138.422,160.191 144.591,157.349 146.157 C 156.859 146.427,156.523 146.711,156.601 146.789 C 156.731 146.919,159.242 145.376,159.560 144.970 C 159.635 144.874,159.897 144.682,160.141 144.543 C 162.599 143.149,168.933 136.779,172.426 132.187 C 174.553 129.391,178.542 121.631,178.542 120.289 C 178.542 120.138,178.798 119.437,179.110 118.730 C 179.423 118.024,179.623 117.235,179.555 116.976 C 179.441 116.544,179.429 116.545,179.399 116.989 M310.179 121.320 C 309.437 121.509,309.423 121.531,310.041 121.536 C 310.420 121.538,311.039 121.442,311.417 121.320 C 312.341 121.024,311.343 121.024,310.179 121.320 M123.659 122.321 C 122.204 122.905,122.135 122.964,123.077 122.820 C 123.665 122.730,124.592 122.418,125.136 122.126 C 126.481 121.406,125.677 121.512,123.659 122.321 M302.270 121.800 C 303.367 121.852,305.162 121.852,306.259 121.800 C 307.356 121.748,306.458 121.705,304.264 121.705 C 302.070 121.705,301.173 121.748,302.270 121.800 M120.564 123.161 C 120.829 123.230,121.262 123.230,121.527 123.161 C 121.792 123.092,121.575 123.035,121.045 123.035 C 120.516 123.035,120.299 123.092,120.564 123.161 M365.047 129.505 L 364.099 130.536 365.131 129.588 C 365.698 129.067,366.162 128.603,366.162 128.557 C 366.162 128.347,365.930 128.545,365.047 129.505 M154.826 147.556 C 154.299 147.914,153.694 148.275,153.481 148.359 C 153.166 148.484,153.171 148.515,153.508 148.529 C 153.735 148.538,154.465 148.177,155.131 147.725 C 155.797 147.274,156.216 146.905,156.063 146.905 C 155.910 146.905,155.354 147.198,154.826 147.556 M151.719 149.125 C 151.265 149.415,150.993 149.654,151.114 149.655 C 151.417 149.657,152.957 148.847,152.957 148.686 C 152.957 148.447,152.553 148.590,151.719 149.125 M150.206 150.158 C 150.206 150.743,151.299 151.856,151.875 151.859 C 152.092 151.860,152.641 152.107,153.095 152.409 C 153.549 152.711,154.725 153.347,155.708 153.822 C 156.692 154.298,157.928 154.978,158.455 155.335 C 158.981 155.692,159.536 155.983,159.688 155.983 C 160.047 155.983,158.127 154.682,156.999 154.161 C 153.060 152.342,150.622 150.835,150.685 150.259 C 150.721 149.927,150.628 149.656,150.478 149.656 C 150.329 149.656,150.206 149.882,150.206 150.158 M160.604 156.453 C 160.951 156.724,161.941 157.492,162.805 158.159 C 165.599 160.318,168.982 163.925,171.210 167.121 C 171.490 167.522,171.784 167.785,171.864 167.705 C 171.944 167.625,171.518 166.967,170.917 166.242 C 170.317 165.517,169.707 164.706,169.563 164.440 C 169.113 163.609,164.444 158.978,162.999 157.928 C 161.373 156.748,159.524 155.608,160.604 156.453 M300.000 158.926 C 305.323 159.117,314.639 159.129,314.349 158.945 C 314.174 158.834,310.378 158.766,305.915 158.795 C 301.451 158.823,298.790 158.882,300.000 158.926 M95.323 161.216 C 98.803 161.334,102.146 161.563,102.751 161.726 C 104.501 162.198,105.469 162.060,103.851 161.570 C 102.820 161.258,100.788 161.134,95.736 161.078 L 88.996 161.002 95.323 161.216 M107.065 162.319 C 108.077 162.462,109.536 162.828,110.308 163.133 C 111.080 163.437,112.020 163.686,112.397 163.686 C 112.773 163.686,113.976 164.150,115.069 164.716 C 117.556 166.004,117.580 166.014,117.384 165.696 C 117.090 165.221,113.143 163.411,112.399 163.411 C 111.998 163.411,111.182 163.162,110.585 162.858 C 109.878 162.497,108.757 162.262,107.364 162.182 L 105.227 162.059 107.065 162.319 M119.287 166.749 C 124.510 169.529,127.826 173.090,130.989 179.319 C 131.706 180.729,132.347 182.091,132.414 182.345 C 132.509 182.704,132.543 182.683,132.568 182.248 C 132.585 181.941,132.208 180.951,131.728 180.047 C 131.249 179.144,130.656 178.027,130.411 177.565 C 128.678 174.310,125.051 170.032,122.682 168.449 C 120.924 167.275,118.479 165.935,118.049 165.910 C 117.839 165.897,118.396 166.275,119.287 166.749 M171.939 168.273 C 171.939 168.415,172.249 168.951,172.627 169.464 C 173.006 169.976,173.315 170.507,173.315 170.643 C 173.315 170.779,173.563 171.205,173.865 171.589 C 174.612 172.539,174.557 172.266,173.678 170.667 C 172.827 169.119,171.939 167.896,171.939 168.273 M174.546 173.177 C 174.649 173.631,174.888 174.188,175.077 174.415 C 175.266 174.642,175.580 175.384,175.774 176.064 C 175.969 176.743,176.315 177.548,176.543 177.852 C 176.957 178.402,176.958 178.402,176.759 177.854 C 176.650 177.552,176.335 176.685,176.061 175.928 C 175.349 173.968,174.289 172.042,174.546 173.177 M378.030 174.691 C 378.030 174.917,378.137 175.351,378.267 175.653 C 378.416 176.000,378.503 176.051,378.503 175.791 C 378.503 175.564,378.397 175.131,378.267 174.828 C 378.118 174.481,378.030 174.430,378.030 174.691 M331.582 179.917 C 331.582 180.750,331.633 181.090,331.696 180.674 C 331.759 180.258,331.759 179.577,331.696 179.161 C 331.633 178.745,331.582 179.085,331.582 179.917 M177.181 180.275 C 177.173 180.547,177.353 181.130,177.580 181.570 C 177.808 182.011,178.128 183.330,178.291 184.503 C 178.454 185.675,178.753 187.011,178.955 187.471 C 179.384 188.449,179.508 187.750,179.096 186.668 C 178.947 186.277,178.697 185.153,178.540 184.172 C 178.251 182.358,177.209 179.371,177.181 180.275 M132.603 183.164 C 132.601 183.360,132.804 183.917,133.054 184.400 C 133.304 184.883,133.603 185.589,133.718 185.968 L 133.928 186.657 133.952 185.929 C 133.965 185.528,133.667 184.662,133.291 184.003 C 132.914 183.345,132.605 182.967,132.603 183.164 M379.204 189.684 C 379.204 192.105,379.246 193.058,379.297 191.803 C 379.348 190.547,379.348 188.566,379.296 187.401 C 379.245 186.236,379.203 187.263,379.204 189.684 M134.131 187.895 C 134.232 188.425,134.412 188.982,134.531 189.133 C 134.650 189.285,134.805 189.718,134.874 190.096 L 135.001 190.784 135.038 190.058 C 135.059 189.658,134.822 188.791,134.512 188.132 C 133.958 186.952,133.951 186.949,134.131 187.895 M179.431 189.271 C 179.431 189.801,179.488 190.017,179.557 189.752 C 179.626 189.488,179.626 189.054,179.557 188.790 C 179.488 188.525,179.431 188.741,179.431 189.271 M135.120 191.609 C 135.103 191.912,135.384 193.274,135.745 194.635 C 136.269 196.612,136.406 196.905,136.426 196.090 C 136.440 195.528,136.216 194.471,135.928 193.740 C 135.640 193.010,135.347 192.108,135.277 191.736 C 135.181 191.223,135.143 191.192,135.120 191.609 M179.682 192.710 C 179.673 193.315,179.899 194.739,180.184 195.873 C 180.864 198.579,180.883 197.045,180.208 193.948 C 179.804 192.092,179.695 191.837,179.682 192.710 M136.483 198.744 C 136.466 199.037,136.632 200.028,136.852 200.945 C 137.073 201.863,137.304 202.923,137.365 203.301 C 137.432 203.714,137.492 203.525,137.514 202.829 C 137.535 202.192,137.376 201.139,137.162 200.491 C 136.948 199.843,136.715 199.065,136.644 198.762 C 136.521 198.237,136.514 198.236,136.483 198.744 M180.888 201.513 C 181.003 204.833,181.542 208.725,181.787 208.002 C 181.859 207.789,181.770 206.613,181.588 205.389 C 181.406 204.165,181.148 202.050,181.015 200.688 C 180.776 198.227,180.775 198.233,180.888 201.513 M306.878 204.402 C 305.942 204.569,305.901 204.602,306.602 204.622 C 307.056 204.635,307.923 204.543,308.528 204.417 C 309.968 204.120,308.530 204.106,306.878 204.402 M303.098 204.871 C 303.440 204.937,303.936 204.935,304.199 204.866 C 304.462 204.797,304.182 204.743,303.576 204.746 C 302.971 204.749,302.756 204.806,303.098 204.871 M137.599 205.640 C 137.579 206.094,137.861 208.136,138.224 210.179 C 138.722 212.972,138.891 213.560,138.906 212.551 C 138.918 211.813,138.684 210.142,138.386 208.837 C 138.089 207.533,137.798 206.094,137.740 205.640 L 137.634 204.814 137.599 205.640 M376.877 207.603 C 376.725 208.003,376.652 208.380,376.714 208.443 C 376.777 208.505,376.959 208.179,377.120 207.717 C 377.478 206.691,377.262 206.590,376.877 207.603 M181.918 209.629 C 181.918 210.309,181.972 210.588,182.037 210.248 C 182.103 209.907,182.103 209.350,182.037 209.010 C 181.972 208.669,181.918 208.948,181.918 209.629 M182.267 215.681 C 182.325 217.270,182.504 219.003,182.664 219.532 C 182.824 220.062,183.083 222.072,183.240 224.000 C 183.404 226.012,183.745 228.122,184.040 228.952 C 184.652 230.675,184.745 230.320,184.215 228.280 C 184.007 227.479,183.753 225.894,183.650 224.759 C 183.547 223.624,183.225 220.901,182.933 218.707 C 182.641 216.513,182.348 214.285,182.282 213.755 C 182.215 213.226,182.209 214.092,182.267 215.681 M138.965 215.989 C 138.944 216.385,139.119 217.809,139.354 219.152 C 139.589 220.496,139.892 222.710,140.026 224.072 C 140.270 226.540,140.270 226.538,140.133 223.384 C 140.058 221.644,139.822 219.415,139.610 218.432 C 139.398 217.448,139.174 216.334,139.113 215.956 L 139.002 215.268 138.965 215.989 M140.445 227.785 C 140.806 231.357,141.689 235.870,142.121 236.347 C 142.571 236.844,143.338 236.863,162.147 236.841 C 186.580 236.812,185.974 236.879,185.344 234.274 C 185.195 233.656,184.969 232.717,184.842 232.187 C 184.657 231.414,184.637 231.522,184.739 232.737 C 184.809 233.569,184.942 234.580,185.033 234.983 C 185.370 236.468,185.712 236.444,163.482 236.534 L 143.058 236.618 142.395 235.955 C 141.849 235.410,141.701 234.909,141.555 233.121 C 141.458 231.926,141.140 229.959,140.849 228.748 C 140.493 227.266,140.361 226.952,140.445 227.785 M337.964 239.616 C 337.624 239.764,338.095 239.794,339.202 239.696 C 340.186 239.609,341.042 239.493,341.105 239.439 C 341.348 239.229,338.486 239.391,337.964 239.616 M307.084 240.637 C 307.500 240.700,308.181 240.700,308.597 240.637 C 309.013 240.574,308.673 240.523,307.840 240.523 C 307.008 240.523,306.668 240.574,307.084 240.637 M244.429 240.983 C 240.495 241.063,252.318 241.087,270.702 241.038 C 289.085 240.988,304.250 240.905,304.402 240.853 C 304.828 240.707,252.480 240.821,244.429 240.983 " stroke="none" fill="#4bbee8" fill-rule="evenodd"></path><path id="path3" d="M12.345 14.210 C 11.847 14.810,11.573 260.020,12.070 260.619 C 12.319 260.919,37.895 261.015,158.387 261.168 C 371.023 261.438,387.396 261.427,387.690 261.009 C 388.033 260.523,387.659 14.891,387.314 14.247 C 386.920 13.511,12.955 13.474,12.345 14.210 M112.930 35.487 C 115.653 35.634,121.039 35.826,124.897 35.914 C 130.902 36.051,132.308 36.166,134.663 36.715 C 136.176 37.068,138.095 37.443,138.927 37.548 C 139.759 37.653,140.997 37.908,141.678 38.116 C 142.359 38.323,144.216 38.885,145.805 39.365 C 150.787 40.870,152.599 41.516,154.998 42.646 C 156.278 43.248,157.426 43.747,157.549 43.754 C 157.830 43.769,160.792 45.853,163.594 48.006 C 165.558 49.515,171.939 55.724,171.939 56.126 C 171.939 56.220,172.557 57.093,173.313 58.066 C 174.068 59.039,174.687 59.979,174.688 60.156 C 174.689 60.332,174.788 60.518,174.908 60.569 C 175.245 60.711,176.696 63.208,177.678 65.337 C 178.167 66.396,178.809 67.721,179.104 68.280 C 179.400 68.840,179.645 69.582,179.648 69.931 C 179.652 70.279,179.897 71.099,180.194 71.753 C 180.491 72.407,180.876 73.769,181.050 74.779 C 181.224 75.789,181.484 76.926,181.627 77.304 C 181.899 78.022,182.153 80.777,182.692 88.848 C 183.019 93.742,182.578 102.959,181.804 107.428 C 181.096 111.515,180.714 113.297,180.215 114.844 C 179.920 115.758,179.559 117.001,179.413 117.607 C 179.267 118.212,178.816 119.574,178.410 120.633 C 178.005 121.692,177.508 122.992,177.307 123.521 C 176.316 126.127,174.264 129.771,172.426 132.187 C 168.933 136.779,162.599 143.149,160.141 144.543 C 159.897 144.682,159.635 144.880,159.560 144.984 C 159.369 145.245,157.148 146.651,155.983 147.247 C 155.454 147.518,154.711 147.918,154.333 148.135 C 153.955 148.352,153.002 148.814,152.216 149.162 C 149.769 150.243,149.876 150.547,153.305 152.265 C 161.030 156.137,167.820 161.221,169.563 164.440 C 169.707 164.706,170.301 165.499,170.882 166.200 C 171.464 166.902,171.939 167.598,171.939 167.745 C 171.939 167.893,172.167 168.309,172.444 168.670 C 173.472 170.007,175.707 174.738,176.586 177.442 C 176.906 178.425,177.477 180.179,177.855 181.339 C 178.233 182.499,178.545 183.737,178.548 184.090 C 178.552 184.443,178.800 185.652,179.099 186.776 C 179.398 187.901,179.642 189.342,179.642 189.979 C 179.642 190.615,179.880 192.295,180.170 193.711 C 180.461 195.127,180.842 198.019,181.018 200.138 C 181.193 202.256,181.447 204.573,181.581 205.287 C 181.716 206.001,181.957 208.477,182.118 210.789 C 182.278 213.101,182.646 216.726,182.935 218.845 C 183.224 220.963,183.539 223.563,183.636 224.622 C 183.733 225.681,183.929 227.043,184.071 227.648 C 184.214 228.253,184.508 229.801,184.724 231.087 C 184.941 232.373,185.230 233.869,185.367 234.411 C 185.984 236.854,186.390 236.812,162.147 236.841 C 143.338 236.863,142.571 236.844,142.121 236.347 C 141.663 235.841,140.915 231.934,140.297 226.823 C 139.802 222.730,139.473 219.955,139.186 217.469 C 139.029 216.107,138.599 212.889,138.231 210.316 C 137.863 207.744,137.435 204.711,137.279 203.576 C 136.783 199.959,136.442 198.012,135.764 194.911 C 135.400 193.246,135.020 191.327,134.920 190.646 C 134.820 189.966,134.642 189.285,134.524 189.133 C 134.406 188.982,134.158 188.116,133.973 187.208 C 133.788 186.300,133.418 185.124,133.152 184.594 C 132.885 184.065,132.582 183.236,132.477 182.753 C 132.287 181.873,130.149 177.476,129.159 175.928 C 127.390 173.166,124.433 170.022,122.135 168.461 C 119.737 166.832,113.327 163.686,112.406 163.686 C 112.024 163.686,111.106 163.447,110.364 163.155 C 109.623 162.863,107.496 162.426,105.638 162.184 C 103.780 161.943,102.123 161.659,101.955 161.554 C 101.240 161.105,59.201 160.221,58.776 160.646 C 58.542 160.881,58.424 170.732,58.322 198.648 C 58.201 231.746,58.134 236.366,57.772 236.595 C 57.522 236.752,49.835 236.857,38.315 236.860 L 19.271 236.864 18.852 236.052 C 18.127 234.650,18.223 36.248,18.949 35.522 C 19.530 34.940,102.238 34.910,112.930 35.487 M312.517 39.888 C 316.678 40.038,323.549 40.220,327.785 40.293 C 335.827 40.430,335.415 40.382,342.228 42.000 C 343.212 42.234,344.574 42.534,345.254 42.666 C 346.422 42.894,347.253 43.213,350.671 44.750 C 351.456 45.103,352.188 45.392,352.298 45.392 C 352.630 45.392,356.498 47.809,360.221 50.344 C 363.183 52.360,369.445 59.835,371.973 64.374 C 372.606 65.509,373.275 66.623,373.462 66.850 C 373.648 67.077,373.886 67.572,373.991 67.950 C 374.096 68.329,374.409 69.133,374.686 69.739 C 375.506 71.527,376.301 73.541,376.479 74.278 C 376.570 74.656,376.875 75.770,377.156 76.754 C 379.951 86.509,379.936 101.727,377.127 108.116 C 376.960 108.494,376.665 109.422,376.471 110.179 C 376.085 111.683,374.960 114.465,374.503 115.042 C 374.345 115.242,374.142 115.715,374.052 116.094 C 373.902 116.725,373.013 118.409,371.469 120.991 C 371.134 121.551,370.653 122.380,370.399 122.834 C 369.914 123.699,369.291 124.517,367.596 126.511 C 367.034 127.172,366.451 127.936,366.300 128.210 C 365.724 129.251,360.933 133.960,359.175 135.213 C 358.750 135.516,357.827 136.213,357.124 136.763 C 355.812 137.789,354.589 138.573,353.038 139.382 C 351.368 140.254,351.643 140.989,354.269 142.674 C 355.067 143.185,355.790 143.604,355.877 143.604 C 355.963 143.604,356.363 143.857,356.765 144.166 C 357.167 144.475,358.611 145.580,359.972 146.621 C 363.787 149.538,364.591 150.236,365.843 151.719 C 366.482 152.476,367.403 153.546,367.890 154.098 C 369.743 156.197,370.557 157.353,373.182 161.619 C 374.045 163.022,375.241 165.379,375.241 165.679 C 375.241 165.836,375.478 166.473,375.768 167.095 C 379.704 175.527,380.677 194.925,377.693 205.468 C 377.238 207.076,376.743 208.876,376.592 209.469 C 376.441 210.061,376.149 210.866,375.942 211.257 C 375.736 211.647,375.240 212.710,374.841 213.618 C 374.064 215.386,374.005 215.499,372.113 218.845 C 369.610 223.272,363.283 229.687,359.560 231.572 C 359.182 231.764,358.315 232.277,357.634 232.712 C 354.748 234.556,347.373 237.964,346.269 237.964 C 346.047 237.964,345.325 238.209,344.666 238.508 C 344.006 238.808,343.118 239.055,342.692 239.059 C 342.266 239.062,341.709 239.176,341.454 239.312 C 339.479 240.368,310.098 240.843,217.744 241.315 L 200.413 241.403 200.344 140.744 C 200.296 72.313,200.365 39.976,200.556 39.745 C 200.905 39.325,300.458 39.452,312.517 39.888 M58.783 72.146 C 58.107 72.640,58.195 123.374,58.872 123.802 C 59.399 124.136,105.751 124.131,110.867 123.797 C 121.190 123.123,124.065 122.658,126.685 121.239 C 126.988 121.075,127.725 120.702,128.324 120.409 C 129.932 119.623,130.884 118.898,132.780 117.015 C 135.409 114.404,137.016 111.739,137.813 108.666 C 137.990 107.985,138.311 106.747,138.527 105.915 C 139.536 102.031,139.276 88.216,138.149 85.779 C 137.820 85.068,137.552 84.361,137.552 84.206 C 137.552 84.052,137.176 83.395,136.716 82.747 C 136.257 82.099,135.593 81.132,135.240 80.600 C 132.709 76.779,127.686 73.986,121.320 72.862 C 115.828 71.892,60.002 71.253,58.783 72.146 M243.462 76.098 C 243.278 99.944,243.507 121.769,243.944 122.093 C 244.336 122.383,247.489 122.421,260.385 122.291 C 279.936 122.093,309.287 121.584,309.524 121.438 C 309.619 121.379,310.920 121.197,312.414 121.034 C 315.022 120.750,318.180 119.784,319.120 118.984 C 319.347 118.790,320.151 118.320,320.908 117.937 C 321.664 117.555,322.532 117.007,322.837 116.718 C 323.141 116.430,323.592 116.079,323.839 115.938 C 324.565 115.523,328.120 111.176,328.628 110.082 C 328.884 109.530,329.250 108.893,329.441 108.666 C 332.229 105.358,332.718 93.249,330.269 88.171 C 328.918 85.370,325.510 81.490,323.456 80.416 C 320.826 79.040,318.897 78.129,318.613 78.129 C 318.439 78.129,317.584 77.886,316.714 77.589 C 313.428 76.468,313.541 76.472,258.253 75.769 C 243.892 75.586,243.466 75.595,243.462 76.098 M243.648 158.867 C 243.118 159.397,242.937 203.850,243.461 204.677 C 243.775 205.171,299.164 205.155,304.127 204.660 C 305.640 204.509,308.720 204.260,310.971 204.108 C 324.231 203.209,331.297 194.912,331.343 180.186 L 331.362 173.990 330.549 171.933 C 330.103 170.802,329.515 169.581,329.243 169.220 C 328.971 168.859,328.748 168.423,328.748 168.250 C 328.748 166.958,320.471 160.935,318.695 160.935 C 318.594 160.935,317.688 160.536,316.683 160.048 L 314.856 159.160 303.989 158.980 C 271.917 158.448,244.119 158.396,243.648 158.867 " stroke="none" fill="#fbfbfb" fill-rule="evenodd"></path><path id="path4" d="M19.291 35.585 C 18.754 36.232,18.994 235.979,19.532 236.319 C 20.318 236.816,56.717 236.663,57.435 236.160 L 58.047 235.732 58.047 198.364 C 58.047 163.182,58.075 160.962,58.528 160.412 L 59.010 159.828 69.739 160.106 C 75.640 160.258,81.953 160.441,83.769 160.512 C 85.585 160.583,90.536 160.757,94.773 160.898 C 99.079 161.041,102.901 161.294,103.439 161.471 C 103.968 161.644,105.564 161.911,106.984 162.063 C 108.505 162.225,109.999 162.559,110.619 162.875 C 111.197 163.170,112.015 163.414,112.437 163.416 C 113.085 163.421,114.724 164.131,117.331 165.537 C 117.634 165.700,118.686 166.225,119.670 166.704 C 123.889 168.757,127.860 172.772,130.411 177.565 C 130.656 178.027,131.249 179.144,131.728 180.047 C 132.208 180.951,132.601 181.941,132.603 182.248 C 132.605 182.555,132.914 183.345,133.291 184.003 C 133.667 184.662,133.975 185.567,133.975 186.016 C 133.975 186.464,134.213 187.411,134.503 188.120 C 134.794 188.828,135.110 190.079,135.207 190.899 C 135.303 191.719,135.575 192.833,135.811 193.375 C 136.047 193.917,136.343 195.501,136.469 196.896 C 136.594 198.291,136.840 199.699,137.015 200.026 C 137.190 200.353,137.450 201.997,137.593 203.680 C 137.736 205.363,138.037 207.421,138.263 208.253 C 138.489 209.085,138.786 211.314,138.923 213.205 C 139.060 215.096,139.356 217.448,139.581 218.432 C 139.806 219.415,140.069 221.520,140.165 223.109 C 140.261 224.697,140.574 227.111,140.861 228.473 C 141.147 229.835,141.460 231.926,141.557 233.121 C 141.702 234.910,141.849 235.409,142.395 235.955 L 143.058 236.618 163.482 236.534 C 186.005 236.443,185.377 236.492,185.009 234.844 C 184.902 234.366,184.717 233.047,184.597 231.912 C 184.478 230.777,184.188 229.329,183.954 228.694 C 183.720 228.059,183.399 225.954,183.241 224.017 C 183.084 222.080,182.823 220.062,182.662 219.532 C 182.501 219.003,182.255 216.403,182.114 213.755 C 181.974 211.107,181.669 208.074,181.438 207.015 C 181.207 205.956,180.944 203.542,180.853 201.651 C 180.762 199.759,180.462 197.160,180.185 195.873 C 179.909 194.587,179.615 192.412,179.532 191.039 C 179.448 189.667,179.202 188.118,178.985 187.598 C 178.767 187.077,178.456 185.688,178.292 184.511 C 178.128 183.334,177.823 182.035,177.613 181.625 C 177.403 181.216,177.143 180.323,177.035 179.642 C 176.927 178.961,176.676 178.148,176.478 177.834 C 176.280 177.521,175.961 176.716,175.769 176.046 C 175.578 175.376,175.268 174.642,175.081 174.415 C 174.895 174.188,174.603 173.482,174.434 172.845 C 174.264 172.209,174.003 171.612,173.854 171.520 C 173.704 171.427,173.394 170.958,173.164 170.476 C 171.317 166.612,167.082 161.535,162.999 158.290 C 160.952 156.663,160.233 156.225,155.889 153.951 C 154.551 153.251,153.193 152.493,152.871 152.267 C 152.548 152.042,152.086 151.857,151.844 151.857 C 151.302 151.857,150.202 150.729,150.218 150.189 C 150.228 149.840,150.859 149.473,153.508 148.278 C 153.886 148.107,154.763 147.635,155.458 147.230 C 156.152 146.824,157.142 146.257,157.657 145.969 C 160.357 144.461,167.089 138.312,170.186 134.525 C 170.619 133.996,171.106 133.439,171.269 133.287 C 171.432 133.136,171.769 132.703,172.019 132.325 C 172.269 131.946,172.839 131.142,173.286 130.536 C 174.143 129.377,176.698 124.417,177.042 123.246 C 177.153 122.868,177.474 122.127,177.755 121.600 C 178.037 121.072,178.267 120.390,178.267 120.083 C 178.267 119.775,178.522 119.048,178.834 118.467 C 179.145 117.885,179.469 116.773,179.554 115.995 C 179.639 115.217,179.895 114.282,180.123 113.917 C 180.352 113.552,180.645 112.303,180.775 111.141 C 180.905 109.979,181.205 108.483,181.441 107.815 C 182.544 104.705,182.539 81.228,181.436 78.132 C 181.194 77.453,180.923 76.153,180.834 75.243 C 180.745 74.334,180.450 73.157,180.178 72.627 C 179.906 72.098,179.623 71.129,179.549 70.474 C 179.474 69.819,179.233 69.076,179.013 68.823 C 178.792 68.570,178.472 67.930,178.301 67.400 C 177.942 66.286,177.110 64.629,175.772 62.362 C 175.253 61.482,174.692 60.521,174.525 60.225 C 173.668 58.705,169.605 53.794,167.775 52.068 C 165.771 50.178,160.142 45.573,159.249 45.093 C 158.851 44.879,157.551 44.232,156.360 43.654 C 155.170 43.077,153.762 42.380,153.232 42.107 C 152.703 41.833,151.851 41.519,151.339 41.408 C 150.827 41.296,149.898 40.974,149.275 40.691 C 148.653 40.409,147.815 40.174,147.414 40.171 C 147.013 40.168,146.022 39.857,145.213 39.480 C 144.404 39.103,143.397 38.794,142.976 38.792 C 142.555 38.791,141.750 38.596,141.188 38.359 C 140.625 38.123,139.158 37.813,137.926 37.672 C 136.695 37.531,134.900 37.175,133.937 36.882 C 132.419 36.419,131.003 36.327,123.246 36.187 C 118.329 36.098,112.758 35.908,110.867 35.766 C 104.789 35.308,19.661 35.140,19.291 35.585 M38.377 36.044 C 45.034 36.193,67.999 36.436,89.409 36.585 C 128.693 36.859,132.564 36.945,133.563 37.562 C 133.865 37.749,135.180 37.983,136.484 38.082 C 137.987 38.196,139.243 38.459,139.912 38.801 C 140.494 39.097,141.474 39.340,142.091 39.340 C 142.708 39.340,143.698 39.587,144.292 39.890 C 144.885 40.193,145.759 40.440,146.235 40.440 C 146.710 40.440,147.644 40.730,148.311 41.085 C 148.978 41.439,150.003 41.820,150.590 41.930 C 151.176 42.040,152.102 42.369,152.647 42.660 C 153.191 42.952,153.917 43.191,154.260 43.191 C 154.603 43.191,154.883 43.317,154.883 43.471 C 154.883 43.714,155.386 43.995,157.084 44.697 C 158.254 45.182,161.437 47.333,162.448 48.324 C 162.902 48.768,163.707 49.456,164.237 49.853 C 167.226 52.094,174.140 59.881,174.140 61.006 C 174.140 61.147,174.388 61.487,174.691 61.761 C 174.993 62.035,175.241 62.480,175.241 62.750 C 175.241 63.020,175.362 63.316,175.511 63.408 C 175.861 63.625,177.717 67.389,177.717 67.884 C 177.717 68.092,178.026 68.668,178.404 69.164 C 178.893 69.805,179.092 70.410,179.092 71.256 C 179.092 71.972,179.272 72.645,179.542 72.943 C 179.840 73.273,180.068 74.273,180.220 75.918 C 180.355 77.380,180.650 78.764,180.940 79.294 C 181.772 80.818,181.831 103.655,181.008 106.026 C 180.688 106.948,180.359 108.755,180.276 110.041 C 180.174 111.625,179.959 112.657,179.609 113.237 C 179.325 113.709,179.092 114.549,179.092 115.104 C 179.092 115.658,178.800 116.696,178.444 117.409 C 178.087 118.123,177.721 119.187,177.630 119.773 C 177.539 120.359,177.274 121.050,177.041 121.308 C 176.807 121.565,176.616 122.160,176.616 122.628 C 176.616 123.134,176.338 123.810,175.928 124.296 C 175.550 124.746,175.241 125.358,175.241 125.656 C 175.241 125.954,174.993 126.513,174.691 126.898 C 174.388 127.282,174.140 127.849,174.140 128.157 C 174.140 128.465,173.912 128.879,173.634 129.077 C 173.355 129.274,172.965 129.746,172.767 130.124 C 172.569 130.502,172.333 130.873,172.242 130.949 C 172.151 131.025,171.773 131.520,171.402 132.050 C 169.599 134.620,160.597 143.542,159.189 144.154 C 158.717 144.359,156.451 145.889,156.033 146.286 C 155.833 146.475,155.498 146.630,155.288 146.630 C 155.079 146.630,154.451 146.939,153.894 147.318 C 153.337 147.696,152.655 148.006,152.378 148.006 C 152.102 148.006,151.744 148.253,151.582 148.556 C 151.414 148.870,151.006 149.106,150.632 149.106 C 149.569 149.106,149.106 149.399,149.106 150.070 C 149.106 150.871,150.820 152.407,151.713 152.407 C 152.078 152.407,152.543 152.646,152.748 152.938 C 152.952 153.230,153.485 153.556,153.933 153.663 C 154.380 153.769,154.936 154.021,155.168 154.222 C 155.401 154.423,156.020 154.788,156.544 155.034 C 158.238 155.829,161.274 157.670,161.923 158.296 C 162.094 158.462,162.707 158.968,163.285 159.422 C 164.464 160.349,167.716 163.665,168.681 164.924 C 169.029 165.378,169.450 165.873,169.616 166.025 C 169.783 166.176,170.336 166.981,170.845 167.813 C 171.353 168.645,171.994 169.547,172.267 169.818 C 172.541 170.089,172.765 170.561,172.765 170.868 C 172.765 171.175,173.074 171.832,173.453 172.328 C 173.831 172.824,174.140 173.552,174.140 173.946 C 174.140 174.341,174.335 174.772,174.573 174.905 C 174.816 175.041,175.076 175.681,175.166 176.363 C 175.254 177.032,175.616 177.962,175.971 178.430 C 176.408 179.007,176.616 179.651,176.616 180.426 C 176.616 181.055,176.864 182.032,177.166 182.597 C 177.539 183.291,177.719 184.158,177.723 185.278 C 177.727 186.361,177.926 187.360,178.300 188.171 C 178.734 189.111,178.923 190.285,179.088 193.057 C 179.227 195.382,179.437 196.864,179.669 197.143 C 179.921 197.447,180.091 199.066,180.225 202.435 C 180.369 206.071,180.555 207.739,180.966 209.078 C 181.395 210.476,181.543 211.934,181.646 215.751 C 181.740 219.228,181.882 220.761,182.141 221.073 C 182.375 221.355,182.577 222.821,182.709 225.203 C 182.874 228.175,183.017 229.043,183.442 229.648 C 184.150 230.656,184.472 235.371,183.849 235.610 C 183.629 235.694,174.399 235.763,163.338 235.763 L 143.227 235.763 142.590 235.165 C 142.000 234.611,141.953 234.347,141.953 231.582 C 141.953 229.302,141.823 228.227,141.403 227.032 C 141.010 225.913,140.852 224.757,140.851 222.981 C 140.848 220.133,140.424 217.121,139.943 216.543 C 139.739 216.298,139.558 214.618,139.464 212.090 C 139.366 209.426,139.195 207.888,138.966 207.613 C 138.769 207.375,138.516 205.835,138.381 204.049 C 138.130 200.709,137.701 198.624,137.266 198.624 C 137.120 198.624,136.996 197.665,136.989 196.492 C 136.982 195.250,136.799 193.901,136.550 193.260 C 136.315 192.655,136.028 191.474,135.911 190.635 C 135.652 188.769,135.392 187.885,134.942 187.345 C 134.754 187.118,134.524 186.266,134.433 185.451 C 134.342 184.635,134.085 183.767,133.862 183.521 C 133.639 183.275,133.337 182.540,133.191 181.888 C 133.044 181.237,132.728 180.486,132.487 180.220 C 132.246 179.954,132.050 179.596,132.050 179.424 C 132.050 179.021,130.155 175.567,129.820 175.360 C 129.680 175.274,129.401 174.809,129.199 174.328 C 128.597 172.886,123.613 168.049,121.813 167.159 C 120.949 166.732,120.108 166.222,119.945 166.025 C 119.781 165.827,119.319 165.584,118.919 165.483 C 118.518 165.383,117.854 165.061,117.443 164.769 C 117.033 164.476,116.523 164.237,116.311 164.237 C 116.099 164.237,115.506 163.927,114.993 163.549 C 114.425 163.129,113.692 162.861,113.115 162.861 C 112.595 162.861,111.783 162.629,111.312 162.346 C 110.730 161.997,109.682 161.780,108.059 161.672 C 106.431 161.565,105.422 161.355,104.908 161.018 C 104.241 160.581,103.236 160.504,96.436 160.363 C 90.649 160.243,88.224 160.088,86.731 159.742 C 84.988 159.337,83.084 159.288,71.326 159.351 L 57.909 159.422 57.426 160.385 C 56.972 161.289,56.944 163.605,56.952 198.487 L 56.962 235.626 38.316 235.626 L 19.670 235.626 19.600 135.901 C 19.533 41.077,19.553 36.158,20.012 35.806 C 20.381 35.524,21.179 35.477,23.384 35.606 C 24.972 35.699,31.719 35.896,38.377 36.044 M57.361 71.898 C 56.987 72.469,56.946 75.491,57.011 98.194 L 57.084 123.845 57.733 124.371 C 59.084 125.464,118.168 125.072,120.830 123.952 C 121.393 123.715,122.461 123.521,123.204 123.521 C 124.077 123.521,124.677 123.373,124.902 123.103 C 125.093 122.873,125.781 122.551,126.431 122.387 C 127.082 122.223,127.826 121.854,128.086 121.567 C 128.346 121.280,128.842 121.045,129.189 121.045 C 130.027 121.045,136.618 114.559,136.893 113.463 C 136.999 113.039,137.377 112.264,137.732 111.741 C 138.087 111.218,138.377 110.527,138.377 110.205 C 138.377 109.884,138.624 109.159,138.927 108.594 C 139.344 107.816,139.477 107.042,139.477 105.400 C 139.477 104.069,139.651 102.768,139.927 102.029 C 140.550 100.360,140.542 92.752,139.915 90.329 C 139.674 89.401,139.477 88.023,139.477 87.267 C 139.477 85.888,137.870 81.981,137.303 81.981 C 137.170 81.981,136.988 81.689,136.898 81.332 C 136.653 80.356,131.393 75.184,130.431 74.973 C 129.991 74.876,129.413 74.556,129.147 74.262 C 128.881 73.968,128.389 73.728,128.055 73.728 C 127.721 73.728,127.132 73.480,126.747 73.177 C 126.345 72.861,125.631 72.627,125.068 72.627 C 124.529 72.627,123.140 72.318,121.982 71.939 L 119.875 71.252 88.830 71.252 L 57.784 71.252 57.361 71.898 M110.316 71.784 C 116.293 71.920,119.812 72.108,120.329 72.319 C 120.767 72.498,122.066 72.775,123.217 72.935 C 124.368 73.094,125.433 73.321,125.585 73.437 C 125.736 73.554,126.451 73.847,127.174 74.087 C 127.897 74.328,128.811 74.779,129.205 75.089 C 129.600 75.399,130.048 75.653,130.201 75.653 C 130.508 75.653,132.196 76.993,133.711 78.438 C 135.188 79.849,137.362 82.855,137.693 83.947 C 137.801 84.303,138.113 84.966,138.387 85.420 C 139.755 87.689,139.692 105.974,138.310 108.118 C 138.066 108.495,137.781 109.298,137.675 109.904 C 137.569 110.509,137.327 111.190,137.137 111.417 C 136.947 111.644,136.697 112.139,136.583 112.517 C 136.037 114.316,130.464 120.014,128.747 120.528 C 128.139 120.710,127.504 121.025,127.336 121.227 C 127.168 121.430,126.827 121.596,126.578 121.596 C 126.330 121.596,125.692 121.829,125.160 122.114 C 123.412 123.051,119.435 123.626,111.692 124.063 C 104.928 124.445,59.596 124.414,58.747 124.027 L 58.047 123.708 58.047 98.046 L 58.047 72.383 58.658 71.955 C 59.348 71.472,91.961 71.364,110.316 71.784 " stroke="none" fill="#54718f" fill-rule="evenodd"></path></g></svg>