<!DOCTYPE svg PUBLIC "-//W3C//DTD SVG 20010904//EN" "http://www.w3.org/TR/2001/REC-SVG-20010904/DTD/svg10.dtd">
<svg version="1.0" xmlns="http://www.w3.org/2000/svg" width="1359px" height="329px" viewBox="0 0 13590 3290" preserveAspectRatio="xMidYMid meet">
<g id="layer101" fill="#28306d" stroke="none">
 <path d="M0 1510 l0 -1360 6795 0 6795 0 0 1360 0 1360 -6795 0 -6795 0 0 -1360z"/>
 </g>
<g id="layer102" fill="#7eb442" stroke="none">
 <path d="M0 1510 l0 -1360 6795 0 6795 0 0 1360 0 1360 -6795 0 -6795 0 0 -1360z m3955 971 c306 -80 493 -288 568 -631 29 -131 31 -494 3 -645 -71 -389 -245 -600 -566 -687 -76 -21 -107 -23 -295 -23 -243 0 -303 11 -450 79 -191 90 -315 241 -388 472 -77 245 -77 690 1 914 105 303 308 473 636 536 109 21 388 12 491 -15z m-3375 -362 l0 -382 228 6 c244 6 291 13 381 62 113 62 156 167 191 470 11 94 23 182 26 198 l6 27 214 0 c165 0 214 -3 214 -12 0 -7 -5 -32 -10 -55 -6 -23 -17 -113 -25 -200 -18 -191 -30 -258 -57 -332 -40 -108 -102 -176 -209 -230 l-56 -28 56 -29 c74 -38 169 -135 204 -207 48 -99 69 -198 70 -332 1 -192 -37 -298 -148 -411 -71 -72 -143 -108 -269 -137 -84 -19 -132 -21 -648 -24 l-558 -4 0 1000 0 1001 195 0 195 0 0 -381z m1918 -616 l-3 -998 -192 -3 -193 -2 0 1000 0 1000 195 0 195 0 -2 -997z"/>
 <path d="M3589 2170 c-164 -21 -281 -112 -338 -264 -90 -240 -76 -690 27 -879 36 -67 120 -141 190 -168 80 -31 246 -38 328 -14 197 56 296 219 324 531 19 209 -11 436 -77 570 -83 169 -247 250 -454 224z"/>
 <path d="M580 1120 l0 -260 295 0 c172 0 315 4 344 11 67 14 111 45 141 99 22 39 25 57 25 140 0 110 -23 172 -81 216 -64 49 -103 54 -426 54 l-298 0 0 -260z"/>
 </g>
<g id="layer103" fill="#3fbbec" stroke="none">
 <path d="M0 1510 l0 -1360 6795 0 6795 0 0 1360 0 1360 -6795 0 -6795 0 0 -1360z m8185 1011 c220 -59 368 -155 448 -292 15 -25 39 -79 53 -120 50 -148 54 -210 54 -916 l0 -653 -215 0 -214 0 -3 707 -3 708 -23 56 c-45 113 -145 176 -313 199 -199 27 -389 -33 -471 -150 -73 -104 -78 -158 -78 -896 l0 -624 -216 0 -216 0 4 698 c5 779 7 798 75 942 46 98 167 220 263 267 169 82 292 103 565 99 175 -3 223 -7 290 -25z m-1847 -4 c194 -52 312 -171 351 -355 16 -75 14 -227 -4 -295 -32 -123 -101 -218 -207 -288 l-58 -37 50 -32 c139 -89 230 -264 230 -444 0 -142 -51 -276 -142 -372 -64 -68 -118 -99 -215 -127 -76 -21 -96 -21 -750 -25 l-673 -3 0 1001 0 1001 678 -4 c597 -3 684 -5 740 -20z m3212 -977 l0 -1000 -210 0 -210 0 0 1000 0 1000 210 0 210 0 0 -1000z m1760 820 l0 -180 -297 0 c-164 0 -329 -5 -367 -10 -144 -21 -218 -76 -259 -194 -7 -21 -13 -270 -17 -731 l-5 -700 -213 -3 -213 -2 4 707 c3 681 4 712 25 803 29 130 72 210 158 296 98 99 226 159 389 183 33 5 225 9 428 10 l367 1 0 -180z m1510 157 c171 -42 266 -93 358 -192 74 -79 122 -162 160 -280 111 -338 88 -805 -52 -1100 -113 -238 -309 -358 -648 -394 -55 -6 -312 -11 -588 -11 l-490 0 0 1001 0 1000 598 -4 c502 -3 607 -7 662 -20z m-8865 -36 c306 -80 493 -288 568 -631 29 -131 31 -494 3 -645 -71 -389 -245 -600 -566 -687 -76 -21 -107 -23 -295 -23 -243 0 -303 11 -450 79 -191 90 -315 241 -388 472 -77 245 -77 690 1 914 105 303 308 473 636 536 109 21 388 12 491 -15z m-3375 -362 l0 -382 228 6 c244 6 291 13 381 62 113 62 156 167 191 470 11 94 23 182 26 198 l6 27 214 0 c165 0 214 -3 214 -12 0 -7 -5 -32 -10 -55 -6 -23 -17 -113 -25 -200 -18 -191 -30 -258 -57 -332 -40 -108 -102 -176 -209 -230 l-56 -28 56 -29 c74 -38 169 -135 204 -207 48 -99 69 -198 70 -332 1 -192 -37 -298 -148 -411 -71 -72 -143 -108 -269 -137 -84 -19 -132 -21 -648 -24 l-558 -4 0 1000 0 1001 195 0 195 0 0 -381z m1918 -616 l-3 -998 -192 -3 -193 -2 0 1000 0 1000 195 0 195 0 -2 -997z"/>
 <path d="M5350 1949 l0 -230 353 3 352 3 57 27 c82 38 113 88 113 182 0 126 -64 211 -176 235 -30 7 -181 11 -374 11 l-325 0 0 -231z"/>
 <path d="M5350 1130 l0 -231 353 3 c346 3 353 3 405 27 61 27 97 66 112 119 32 118 -20 234 -130 286 -43 20 -63 21 -392 24 l-348 3 0 -231z"/>
 <path d="M11980 1541 l0 -641 253 0 c265 0 343 8 432 41 158 59 255 246 271 524 19 314 -73 577 -228 656 -97 49 -117 52 -430 56 l-298 5 0 -641z"/>
 <path d="M3589 2170 c-164 -21 -281 -112 -338 -264 -90 -240 -76 -690 27 -879 36 -67 120 -141 190 -168 80 -31 246 -38 328 -14 197 56 296 219 324 531 19 209 -11 436 -77 570 -83 169 -247 250 -454 224z"/>
 <path d="M580 1120 l0 -260 295 0 c172 0 315 4 344 11 67 14 111 45 141 99 22 39 25 57 25 140 0 110 -23 172 -81 216 -64 49 -103 54 -426 54 l-298 0 0 -260z"/>
 </g>
<g id="layer104" fill="#fefffe" stroke="none">
 <path d="M122 1513 l3 -1228 6670 0 6670 0 3 1228 2 1227 -6675 0 -6675 0 2 -1227z m8063 1008 c220 -59 368 -155 448 -292 15 -25 39 -79 53 -120 50 -148 54 -210 54 -916 l0 -653 -215 0 -214 0 -3 707 -3 708 -23 56 c-45 113 -145 176 -313 199 -199 27 -389 -33 -471 -150 -73 -104 -78 -158 -78 -896 l0 -624 -216 0 -216 0 4 698 c5 779 7 798 75 942 46 98 167 220 263 267 169 82 292 103 565 99 175 -3 223 -7 290 -25z m-1847 -4 c194 -52 312 -171 351 -355 16 -75 14 -227 -4 -295 -32 -123 -101 -218 -207 -288 l-58 -37 50 -32 c139 -89 230 -264 230 -444 0 -142 -51 -276 -142 -372 -64 -68 -118 -99 -215 -127 -76 -21 -96 -21 -750 -25 l-673 -3 0 1001 0 1001 678 -4 c597 -3 684 -5 740 -20z m3212 -977 l0 -1000 -210 0 -210 0 0 1000 0 1000 210 0 210 0 0 -1000z m1760 820 l0 -180 -297 0 c-164 0 -329 -5 -367 -10 -144 -21 -218 -76 -259 -194 -7 -21 -13 -270 -17 -731 l-5 -700 -213 -3 -213 -2 4 707 c3 681 4 712 25 803 29 130 72 210 158 296 98 99 226 159 389 183 33 5 225 9 428 10 l367 1 0 -180z m1510 157 c171 -42 266 -93 358 -192 74 -79 122 -162 160 -280 111 -338 88 -805 -52 -1100 -113 -238 -309 -358 -648 -394 -55 -6 -312 -11 -588 -11 l-490 0 0 1001 0 1000 598 -4 c502 -3 607 -7 662 -20z m-8865 -36 c306 -80 493 -288 568 -631 29 -131 31 -494 3 -645 -71 -389 -245 -600 -566 -687 -76 -21 -107 -23 -295 -23 -243 0 -303 11 -450 79 -191 90 -315 241 -388 472 -77 245 -77 690 1 914 105 303 308 473 636 536 109 21 388 12 491 -15z m-3375 -362 l0 -382 228 6 c244 6 291 13 381 62 113 62 156 167 191 470 11 94 23 182 26 198 l6 27 214 0 c165 0 214 -3 214 -12 0 -7 -5 -32 -10 -55 -6 -23 -17 -113 -25 -200 -18 -191 -30 -258 -57 -332 -40 -108 -102 -176 -209 -230 l-56 -28 56 -29 c74 -38 169 -135 204 -207 48 -99 69 -198 70 -332 1 -192 -37 -298 -148 -411 -71 -72 -143 -108 -269 -137 -84 -19 -132 -21 -648 -24 l-558 -4 0 1000 0 1001 195 0 195 0 0 -381z m1918 -616 l-3 -998 -192 -3 -193 -2 0 1000 0 1000 195 0 195 0 -2 -997z"/>
 <path d="M5350 1949 l0 -230 353 3 352 3 57 27 c82 38 113 88 113 182 0 126 -64 211 -176 235 -30 7 -181 11 -374 11 l-325 0 0 -231z"/>
 <path d="M5350 1130 l0 -231 353 3 c346 3 353 3 405 27 61 27 97 66 112 119 32 118 -20 234 -130 286 -43 20 -63 21 -392 24 l-348 3 0 -231z"/>
 <path d="M11980 1541 l0 -641 253 0 c265 0 343 8 432 41 158 59 255 246 271 524 19 314 -73 577 -228 656 -97 49 -117 52 -430 56 l-298 5 0 -641z"/>
 <path d="M3589 2170 c-164 -21 -281 -112 -338 -264 -90 -240 -76 -690 27 -879 36 -67 120 -141 190 -168 80 -31 246 -38 328 -14 197 56 296 219 324 531 19 209 -11 436 -77 570 -83 169 -247 250 -454 224z"/>
 <path d="M580 1120 l0 -260 295 0 c172 0 315 4 344 11 67 14 111 45 141 99 22 39 25 57 25 140 0 110 -23 172 -81 216 -64 49 -103 54 -426 54 l-298 0 0 -260z"/>
 </g>

</svg>
